<svg width="193" height="25" viewBox="0 0 193 25" fill="none" xmlns="http://www.w3.org/2000/svg">
<g id="Group 12">
<g id="simple-icons_frontendmentor">
<path id="Shape" fill-rule="evenodd" clip-rule="evenodd" d="M69.084 2.23057C68.8875 2.23433 68.7002 2.31506 68.5626 2.4554C68.4249 2.59575 68.3478 2.7845 68.3479 2.98108V17.247C68.3479 17.4461 68.4269 17.637 68.5677 17.7778C68.7084 17.9185 68.8993 17.9975 69.0983 17.9975C69.2974 17.9975 69.4883 17.9185 69.6291 17.7778C69.7698 17.637 69.8488 17.4461 69.8488 17.247V2.98108C69.849 2.8814 69.829 2.7827 69.7905 2.69077C69.752 2.59883 69.6955 2.51549 69.6244 2.44562C69.5533 2.37575 69.4689 2.32075 69.3764 2.28383C69.2837 2.24691 69.1847 2.2288 69.085 2.23057H69.084ZM80.4402 6.504C80.3421 6.50683 80.2457 6.52877 80.1561 6.5686L73.7152 9.44351C73.5835 9.50305 73.4717 9.59932 73.3932 9.72081C73.3149 9.84229 73.2732 9.98382 73.2732 10.1284C73.2732 10.273 73.3149 10.4145 73.3932 10.536C73.4717 10.6575 73.5835 10.7538 73.7152 10.8133L80.1561 13.6974C80.2529 13.741 80.3576 13.7637 80.4637 13.7641C80.6353 13.7636 80.8016 13.7042 80.9347 13.596C81.0679 13.4878 81.16 13.3372 81.1955 13.1693C81.2312 13.0015 81.2082 12.8265 81.1304 12.6735C81.0527 12.5206 80.9248 12.3989 80.7682 12.3287L75.8612 10.1294L80.7682 7.93838C80.9494 7.85681 81.0909 7.70689 81.1621 7.52136C81.2332 7.33581 81.228 7.12969 81.1477 6.94795C81.0868 6.81235 80.9871 6.69783 80.8611 6.61883C80.7352 6.53982 80.5887 6.49986 80.4402 6.504ZM57.0362 11.7354C57.1408 11.6859 57.2554 11.6612 57.3711 11.6633V11.6643C57.5346 11.6675 57.6926 11.724 57.821 11.8252C57.9495 11.9265 58.0413 12.0669 58.0826 12.2251C58.8681 15.2343 60.6297 17.8977 63.0912 19.7984C65.5528 21.699 68.5752 22.7294 71.6851 22.7282C71.8842 22.7282 72.0752 22.8073 72.2159 22.9481C72.3567 23.0888 72.4357 23.2798 72.4357 23.4787C72.4357 23.6778 72.3567 23.8687 72.2159 24.0095C72.0752 24.1502 71.8842 24.2292 71.6851 24.2292C64.6025 24.2292 58.4107 19.4473 56.6308 12.6014C56.6019 12.4894 56.5992 12.3722 56.623 12.259C56.6469 12.1458 56.6966 12.0396 56.7683 11.9488C56.8399 11.8579 56.9316 11.7849 57.0362 11.7354Z" fill="white"/>
</g>
<g id="akar-icons_twitter-fill">
<path id="Path" d="M192.492 5.70559C191.636 6.08495 190.716 6.34128 189.75 6.45713C190.747 5.8602 191.494 4.92069 191.849 3.81393C190.912 4.37065 189.886 4.76253 188.817 4.97251C188.097 4.20443 187.144 3.69532 186.106 3.52425C185.068 3.35318 184.002 3.5297 183.074 4.02642C182.146 4.52314 181.409 5.31225 180.975 6.27125C180.542 7.23025 180.437 8.30548 180.678 9.33C178.779 9.23465 176.921 8.74102 175.225 7.88116C173.529 7.02131 172.032 5.81444 170.833 4.33888C170.423 5.04633 170.187 5.86656 170.187 6.74011C170.187 7.52652 170.38 8.30086 170.751 8.99446C171.121 9.68806 171.657 10.2795 172.311 10.7162C171.553 10.6921 170.811 10.4871 170.148 10.1185V10.18C170.148 11.2829 170.529 12.3519 171.228 13.2056C171.926 14.0593 172.898 14.645 173.98 14.8635C173.276 15.0539 172.538 15.0819 171.822 14.9455C172.127 15.8946 172.721 16.7244 173.522 17.3191C174.322 17.9136 175.288 18.2431 176.284 18.2613C174.592 19.5896 172.503 20.3099 170.352 20.3067C169.971 20.3069 169.59 20.2846 169.212 20.2402C171.395 21.644 173.937 22.389 176.533 22.386C185.319 22.386 190.123 15.1085 190.123 8.79685C190.123 8.59179 190.118 8.38469 190.108 8.17962C191.043 7.50393 191.849 6.66721 192.49 5.70867L192.492 5.70559V5.70559Z" fill="white"/>
</g>
<g id="akar-icons_github-fill">
<path id="Path_2" fill-rule="evenodd" clip-rule="evenodd" d="M12.3035 1C5.50583 1 0 6.50583 0 13.3035C0 18.7478 3.52188 23.3463 8.41254 24.9765C9.02771 25.0842 9.2584 24.715 9.2584 24.3921C9.2584 24.0999 9.24302 23.131 9.24302 22.1005C6.15176 22.6696 5.35203 21.347 5.10596 20.6549C4.96755 20.3012 4.36775 19.2092 3.84485 18.917C3.41423 18.6863 2.79905 18.1173 3.82947 18.1019C4.79838 18.0865 5.49045 18.9939 5.72114 19.363C6.82846 21.2239 8.59709 20.701 9.30454 20.3781C9.4122 19.5783 9.73516 19.04 10.0889 18.7325C7.35136 18.4249 4.49079 17.3637 4.49079 12.6576C4.49079 11.3196 4.96755 10.2123 5.7519 9.35102C5.62886 9.04343 5.19824 7.78232 5.87493 6.09058C5.87493 6.09058 6.90535 5.76762 9.2584 7.3517C10.2427 7.07487 11.2885 6.93645 12.3343 6.93645C13.3801 6.93645 14.4259 7.07487 15.4102 7.3517C17.7632 5.75224 18.7936 6.09058 18.7936 6.09058C19.4703 7.78232 19.0397 9.04343 18.9167 9.35102C19.701 10.2123 20.1778 11.3042 20.1778 12.6576C20.1778 17.3791 17.3018 18.4249 14.5643 18.7325C15.0103 19.1169 15.3948 19.8552 15.3948 21.0086C15.3948 22.6542 15.3794 23.9768 15.3794 24.3921C15.3794 24.715 15.6101 25.0995 16.2253 24.9765C18.6676 24.1519 20.79 22.5821 22.2936 20.4882C23.7972 18.3941 24.6063 15.8814 24.6071 13.3035C24.6071 6.50583 19.1012 1 12.3035 1Z" fill="white"/>
</g>
<g id="LinkedIn">
<path id="Shape_2" fill-rule="evenodd" clip-rule="evenodd" d="M118.551 3.3042C117.412 3.3042 116.484 4.23017 116.484 5.36833C116.484 6.50724 117.412 7.4338 118.551 7.4338C119.689 7.4338 120.614 6.50724 120.614 5.36833C120.614 4.23017 119.689 3.3042 118.551 3.3042ZM116.766 8.99818V20.4515H120.329L120.33 8.99818H116.766ZM122.565 8.99713V20.4503L126.119 20.4517L126.12 14.7845C126.12 13.3298 126.374 11.8429 128.253 11.8429C130.104 11.8429 130.104 13.5976 130.104 14.8789V20.4503L133.663 20.449V14.1689C133.663 11.3348 133.145 8.71224 129.393 8.71224C127.63 8.71224 126.477 9.70851 126.025 10.5618H125.975L125.975 8.99713H122.565ZM135.435 24H114.982C114.006 24 113.212 23.223 113.212 22.268V1.73068C113.212 0.776376 114.006 0 114.982 0H135.435C136.415 0 137.212 0.776376 137.212 1.73068V22.268C137.212 23.223 136.415 24 135.435 24Z" fill="white"/>
</g>
</g>
</svg>
